<?xml version="1.0" encoding="UTF-8"?>
<svg id="Layer_1" data-name="Layer 1" xmlns="http://www.w3.org/2000/svg" viewBox="0 0 2977.42 418.18">
  <defs>
    <style>
      .cls-1 {
        fill: #fff;
      }
    </style>
  </defs>
  <path class="cls-1" d="M0,418.18V0h170.26c44.6,0,83.73,8.87,117.39,26.58,33.65,17.73,59.83,42.32,78.56,73.78,18.72,31.47,28.08,67.71,28.08,108.73s-9.36,77.27-28.08,108.73c-18.72,31.47-44.91,56.06-78.56,73.78-33.66,17.73-72.79,26.58-117.39,26.58H0ZM44.21,379.94h123.66c37.04,0,69.2-7.26,96.48-21.81,27.27-14.53,48.48-34.65,63.62-60.34,15.13-25.69,22.7-55.26,22.7-88.71s-7.57-63.52-22.7-89.01c-15.14-25.48-36.35-45.5-63.62-60.04-27.28-14.53-59.44-21.81-96.48-21.81H44.21v341.71Z"/>
  <path class="cls-1" d="M798.34,184.67c-1.56-3.28-3.25-6.49-5.06-9.63-8.23-14.32-18.32-26.77-30.28-37.38-7.99-7.09-16.82-13.35-26.48-18.78-9.97-5.6-20.54-10.05-31.7-13.33-15.82-4.65-32.83-6.99-51.04-6.99-30.67,0-57.95,6.78-81.84,20.31-23.9,13.54-42.81,32.26-56.75,56.16-13.95,23.9-20.91,51.58-20.91,83.04s6.96,58.64,20.91,82.74c13.94,24.1,32.95,43.01,57.05,56.75,24.09,13.74,51.28,20.61,81.54,20.61,16.12,0,31.36-1.9,45.72-5.7,12.96-3.42,25.2-8.4,36.72-14.91,8.26-4.68,15.92-9.95,22.97-15.83,13.66-11.38,25.02-25.02,34.08-40.92,1.47-2.58,2.86-5.19,4.17-7.85,10.97-22.19,16.44-47.14,16.44-74.89s-5.17-51.79-15.54-73.41ZM611.31,342.31c8.34,14.43,18.5,26.99,30.48,37.7-17.17-1.54-32.89-6.44-47.15-14.7-17.53-10.16-31.46-24.49-41.82-43.01-10.36-18.52-15.53-39.93-15.53-64.22s5.17-46.2,15.53-64.52c10.35-18.31,24.29-32.56,41.82-42.71,15.18-8.8,32.13-13.78,50.89-14.95-13.59,11.28-25.01,24.83-34.23,40.64-13.95,23.9-20.91,51.58-20.91,83.04s6.96,58.64,20.91,82.74ZM726.28,305.76c-6.41,2.88-13.51,4.48-20.98,4.48-4.35,0-8.57-.54-12.6-1.56-22.19-5.62-38.62-25.72-38.62-49.67s16.43-44.05,38.62-49.68c4.03-1.02,8.26-1.56,12.6-1.56,7.48,0,14.58,1.6,20.98,4.48,17.84,8.01,30.26,25.94,30.26,46.75s-12.42,38.73-30.26,46.75Z"/>
  <path class="cls-1" d="M1298.82,258.08c0,27.75,5.47,52.7,16.44,74.89,1.3,2.66,2.7,5.27,4.17,7.85,9.06,15.9,20.43,29.54,34.08,40.92,7.04,5.88,14.7,11.15,22.97,15.83,11.52,6.51,23.76,11.49,36.72,14.91,14.35,3.8,29.6,5.7,45.72,5.7,30.27,0,57.45-6.87,81.54-20.61,24.1-13.74,43.11-32.65,57.05-56.75,13.95-24.1,20.91-51.67,20.91-82.74,0-31.45-6.96-59.14-20.91-83.04-13.94-23.9-32.86-42.61-56.75-56.16-23.9-13.53-51.17-20.31-81.84-20.31-18.21,0-35.22,2.33-51.04,6.99-11.16,3.28-21.72,7.72-31.7,13.33-9.66,5.43-18.49,11.69-26.48,18.78-11.96,10.6-22.05,23.06-30.28,37.38-1.81,3.14-3.5,6.36-5.06,9.63-10.37,21.61-15.54,46.09-15.54,73.41ZM1522.3,259.57c0-31.45-6.96-59.14-20.91-83.04-9.22-15.81-20.64-29.36-34.23-40.64,18.76,1.17,35.72,6.16,50.89,14.95,17.53,10.16,31.46,24.4,41.82,42.71,10.36,18.32,15.53,39.83,15.53,64.52,0,24.29-5.17,45.7-15.53,64.22-10.35,18.52-24.29,32.86-41.82,43.01-14.26,8.26-29.99,13.17-47.15,14.7,11.98-10.71,22.15-23.27,30.48-37.7,13.95-24.1,20.91-51.67,20.91-82.74ZM1356.17,259.01c0-20.82,12.42-38.74,30.26-46.75,6.41-2.88,13.51-4.48,20.98-4.48,4.35,0,8.57.54,12.6,1.56,22.19,5.63,38.62,25.74,38.62,49.68,0,23.95-16.43,44.05-38.62,49.67-4.02,1.02-8.25,1.56-12.6,1.56-7.48,0-14.58-1.6-20.98-4.48-17.84-8.01-30.26-25.93-30.26-46.75Z"/>
  <path class="cls-1" d="M2355.2,227.64v190.54h-40.32v-183.36c0-21.34-2.4-39.39-7.19-54.11s-12.61-25.96-23.46-33.69c-10.87-7.72-25.13-11.59-42.81-11.59s-34.98,5.43-49.7,16.29c-14.74,10.87-26.43,25.68-35.07,44.46-8.65,18.78-12.98,40.51-12.98,65.17v156.85h-40.32V3.97h40.32v159.38c3.89-8.94,9.32-17.61,16.3-26,9.01-10.86,20.88-19.79,35.62-26.79,14.72-6.99,32.77-10.49,54.12-10.49,19.88,0,37.83,4.06,53.84,12.15,16.01,8.11,28.63,21.46,37.84,40.04,9.19,18.59,13.81,43.72,13.81,75.38Z"/>
  <path class="cls-1" d="M2670.93,137.17c-19.88-24.72-49.7-37.07-89.46-37.07-27.23,0-50.24,5.55-69.04,16.65-18.81,11.11-33.05,25.35-42.72,42.71-9.67,17.38-14.5,35.74-14.5,55.08h42.45c0-22.2,7.16-40.75,21.49-55.62,14.32-14.85,35.1-22.29,62.33-22.29,17.91,0,32.77,3.95,44.6,11.82,11.82,7.88,20.69,19.26,26.59,34.12,4.79,12.05,7.64,26.39,8.55,43.03-18.53-1.63-37.04-2.36-55.56-2.2-19.34.19-37.7,1.97-55.08,5.38-17.37,3.41-32.86,8.95-46.47,16.65-13.62,7.71-24.36,17.92-32.23,30.62-7.89,12.72-11.82,28.75-11.82,48.09s4.75,37.07,14.24,51.04c9.48,13.97,22.29,24.63,38.42,31.97,16.12,7.33,34.03,11.02,53.73,11.02,22.92,0,41.72-4.12,56.41-12.36,14.69-8.24,26.24-19.88,34.66-34.92,1.41-2.52,2.75-5.11,4.03-7.77v46.46h39.22v-171.93c0-42.26-9.94-75.75-29.82-100.47ZM2652.12,336.77c-6.26,14.5-15.67,26.33-28.2,35.46-12.55,9.14-28.3,13.7-47.29,13.7-25.44,0-44.42-5.46-56.95-16.39-12.55-10.92-18.81-26.77-18.81-47.55,0-23.64,14.69-41.82,44.06-54.54,27.03-11.7,65.9-15.13,116.6-10.31v33.68c0,16.12-3.14,31.43-9.41,45.94Z"/>
  <path class="cls-1" d="M2977.42,382.96v35.22h-40.33c-25.75,0-45.07-7.19-57.94-21.59-12.89-14.39-19.32-32.18-19.32-53.4v-207.91h-59.08v-35.22h59.08V20.53h41.47v79.53h67.03v35.22h-67.03v207.91c0,14.01,3.12,24.14,9.38,30.39,6.25,6.25,15.23,9.38,26.98,9.38h39.76Z"/>
  <path class="cls-1" d="M1075.77,418.18c-31.06,0-58.84-6.87-83.33-20.61-24.49-13.74-43.71-32.65-57.65-56.75-13.94-24.09-20.91-51.67-20.91-82.73s6.96-59.14,20.91-83.03c13.94-23.89,33.15-42.61,57.65-56.15,24.49-13.53,52.27-20.31,83.33-20.31,26.68,0,50.78,5.18,72.28,15.53,21.5,10.36,38.43,25.89,50.78,46.59l-31.66,21.51c-10.75-15.92-24.1-27.67-40.02-35.24-15.93-7.56-33.26-11.35-51.97-11.35-22.31,0-42.41,5.08-60.33,15.23-17.92,10.16-32.06,24.4-42.41,42.71-10.36,18.32-15.53,39.83-15.53,64.52s5.17,46.2,15.53,64.52c10.35,18.32,24.49,32.56,42.41,42.71,17.92,10.15,38.03,15.23,60.33,15.23,18.71,0,36.04-3.78,51.97-11.35,15.92-7.56,29.27-19.12,40.02-34.65l31.66,21.5c-12.35,20.31-29.27,35.75-50.78,46.3-21.5,10.56-45.61,15.83-72.28,15.83Z"/>
  <path class="cls-1" d="M1880.31,418.18c-31.06,0-58.84-6.87-83.33-20.61-24.49-13.74-43.71-32.65-57.65-56.75-13.94-24.09-20.91-51.67-20.91-82.73s6.96-59.14,20.91-83.03c13.94-23.89,33.15-42.61,57.65-56.15,24.49-13.53,52.27-20.31,83.33-20.31,26.68,0,50.78,5.18,72.28,15.53,21.5,10.36,38.43,25.89,50.78,46.59l-31.66,21.51c-10.75-15.92-24.1-27.67-40.02-35.24-15.93-7.56-33.26-11.35-51.97-11.35-22.31,0-42.41,5.08-60.33,15.23-17.92,10.16-32.06,24.4-42.41,42.71-10.36,18.32-15.53,39.83-15.53,64.52s5.17,46.2,15.53,64.52c10.35,18.32,24.49,32.56,42.41,42.71,17.92,10.15,38.03,15.23,60.33,15.23,18.71,0,36.04-3.78,51.97-11.35,15.92-7.56,29.27-19.12,40.02-34.65l31.66,21.5c-12.35,20.31-29.27,35.75-50.78,46.3-21.5,10.56-45.61,15.83-72.28,15.83Z"/>
</svg>